<?xml version="1.0" encoding="utf-8"?>
<!-- Generator: Adobe Illustrator 15.1.0, SVG Export Plug-In . SVG Version: 6.00 Build 0)  -->
<!DOCTYPE svg PUBLIC "-//W3C//DTD SVG 1.1//EN" "http://www.w3.org/Graphics/SVG/1.1/DTD/svg11.dtd">
<svg version="1.1" id="Layer_1" xmlns="http://www.w3.org/2000/svg" xmlns:xlink="http://www.w3.org/1999/xlink" x="0px" y="0px"
	 width="140px" height="80px" viewBox="0 0 140 80" enable-background="new 0 0 140 80" xml:space="preserve">
<path fill="#ED1C24" d="M130.75,0H9.25C4.141,0,0,4.141,0,9.25V60.75C0,65.859,4.141,70,9.25,70c0,0,48.833,0,51.5,0
	c1.208,0,2.422,0.783,3.167,1.708c1.6,1.988,3.75,4.5,3.75,4.5c1.556,1.556,3.111,1.639,4.667,0.083c0,0,2.694-2.915,4.072-4.625
	C77.25,70.619,78.417,70,79.542,70c2.417,0,51.208,0,51.208,0c5.109,0,9.25-4.141,9.25-9.25V9.25C140,4.141,135.859,0,130.75,0z"/>
</svg>
